#!OML:ASF F:\VICON\USERDATA\INSTALL\rory3\rory3.ASF
:FULLY-SPECIFIED
:DEGREES
646
root -1.8767 16.6468 22.225 -154.189 -12.1936 -182.178
lowerback -28.3512 2.14422 -4.49198
upperback -22.5302 -4.56015 -4.03373
thorax -10.1119 -5.42938 -2.11686
lowerneck -12.3122 -2.13206 -3.70977
upperneck -3.18486 -2.84109 4.60603
head 1.22528 -1.47421 1.97426
rclavicle 1.15295e-014 -2.18663e-014
rhumerus -58.0001 12.3428 -14.9747
rradius 27.8566
rwrist 25.2444
rhand -24.4042 54.1872
rfingers 7.12502
rthumb 2.08697 24.2177
lclavicle 1.15295e-014 -2.18663e-014
lhumerus -52.5556 -25.2047 15.1364
lradius 28.9284
lwrist -49.0184
lhand -29.5404 -0.480847
lfingers 7.12502
lthumb -2.87365 29.4795
rfemur 106.302 -192.179 -181.595
rtibia 44.3685
rfoot -59.0551 -7.32112
rtoes 62.458
lfemur -26.4882 1.31324 -36.4777
ltibia 28.5363
lfoot -41.0852 27.1075
ltoes -5.75668
647
root -1.87342 16.6507 22.2214 -154 -12.2731 -182.245
lowerback -28.2627 2.26925 -4.48317
upperback -22.8717 -4.64572 -4.24119
thorax -10.5896 -5.56956 -2.30746
lowerneck -11.9597 -2.0647 -4.09407
upperneck -6.2183 -2.87927 5.30214
head 0.204537 -1.58936 2.27948
rclavicle 4.37326e-015 7.63333e-014
rhumerus -57.0321 11.1286 -11.9763
rradius 24.7798
rwrist 27.5398
rhand -24.2277 52.6959
rfingers 7.12502
rthumb 2.25748 22.7281
lclavicle 4.37326e-015 7.63333e-014
lhumerus -51.2548 -24.2335 12.1503
lradius 26.6503
lwrist -50.3091
lhand -28.4621 0.076539
lfingers 7.12502
lthumb -1.83222 30.0484
rfemur 106.207 -191.953 -181.529
rtibia 44.3783
rfoot -59.1639 -6.98027
rtoes 62.3853
lfemur -26.6361 1.35631 -36.5266
ltibia 28.527
lfoot -40.9437 26.9667
ltoes -5.76273
648
root -1.86778 16.6476 22.2151 -153.873 -12.3245 -182.179
lowerback -28.1424 2.43619 -4.38328
upperback -23.2187 -4.69289 -4.41555
thorax -11.0869 -5.69828 -2.50216
lowerneck -11.7927 -1.97291 -4.31739
upperneck -9.01968 -2.93234 5.82184
head -0.712721 -1.72898 2.51971
rclavicle 1.66979e-014 6.44062e-014
rhumerus -56.2763 10.2514 -9.34568
rradius 22.3307
rwrist 29.4805
rhand -24.259 50.023
rfingers 7.12502
rthumb 2.22727 20.0549
lclavicle 1.66979e-014 6.44062e-014
lhumerus -49.9697 -23.3619 9.29724
lradius 24.516
lwrist -51.6477
lhand -27.2288 0.641815
lfingers 7.12502
lthumb -0.64106 30.6206
rfemur 106.115 -191.84 -181.35
rtibia 44.352
rfoot -59.2017 -6.36078
rtoes 62.3747
lfemur -26.8061 1.46352 -36.4448
ltibia 28.5647
lfoot -40.7846 26.8171
ltoes -5.6663
649
root -1.86367 16.6471 22.2044 -153.891 -12.3334 -182.024
lowerback -27.8935 2.64201 -4.21933
upperback -23.5856 -4.69683 -4.53646
thorax -11.6607 -5.80237 -2.65652
lowerneck -11.4322 -1.78774 -4.08757
upperneck -11.9144 -2.9844 5.61248
head -1.72651 -1.8934 2.46499
rclavicle 1.39149e-014 2.94201e-014
rhumerus -55.2671 8.72612 -5.70558
rradius 19.9275
rwrist 32.4546
rhand -23.9474 47.8919
rfingers 7.12502
rthumb 2.52815 17.9271
lclavicle 1.39149e-014 2.94201e-014
lhumerus -49.0718 -22.9843 7.04129
lradius 23.1056
lwrist -52.3078
lhand -25.289 1.98449
lfingers 7.12502
lthumb 1.23247 31.9607
rfemur 106.129 -191.852 -181.086
rtibia 44.3282
rfoot -59.0559 -6.55069
rtoes 62.3584
lfemur -26.8273 1.52376 -36.2617
ltibia 28.5998
lfoot -40.8965 26.7028
ltoes -5.35176
650
root -1.85937 16.6493 22.1961 -153.87 -12.4427 -181.884
lowerback -27.7194 2.79242 -4.07088
upperback -23.889 -4.73092 -4.64513
thorax -12.1288 -5.91029 -2.80722
lowerneck -11.3444 -1.55711 -3.85649
upperneck -14.4543 -3.02106 5.31016
head -2.60799 -2.04233 2.39101
rclavicle 2.74323e-014 5.40694e-014
rhumerus -53.9181 4.94973 0.34389
rradius 17.4425
rwrist 38.4497
rhand -22.9379 47.4242
rfingers 7.12502
rthumb 3.50309 17.4733
lclavicle 2.74323e-014 5.40694e-014
lhumerus -48.2684 -22.851 5.20831
lradius 22.223
lwrist -52.415
lhand -22.4469 3.64552
lfingers 7.12502
lthumb 3.97718 33.5882
rfemur 106.113 -191.758 -180.791
rtibia 44.3471
rfoot -58.8779 -6.91994
rtoes 62.2567
lfemur -26.8715 1.75367 -36.1164
ltibia 28.5683
lfoot -40.5991 26.7234
ltoes -5.70884
651
root -1.85235 16.6503 22.1891 -153.777 -12.452 -182.001
lowerback -27.5938 2.81737 -4.25619
upperback -24.1524 -4.85205 -4.69272
thorax -12.5296 -6.00499 -2.73135
lowerneck -11.7286 -1.331 -3.97776
upperneck -16.4846 -3.02291 5.30537
head -3.26034 -2.1494 2.47087
rclavicle 7.95139e-016 8.0309e-014
rhumerus -52.8502 1.37966 5.89013
rradius 15.7256
rwrist 43.8956
rhand -21.9496 45.9351
rfingers 7.12502
rthumb 4.45739 16.002
lclavicle 7.95139e-016 8.0309e-014
lhumerus -47.3584 -22.0607 3.07371
lradius 21.4808
lwrist -53.2857
lhand -19.4301 5.07001
lfingers 7.12502
lthumb 6.88996 34.9379
rfemur 106.039 -191.588 -180.781
rtibia 44.4226
rfoot -58.7117 -7.48356
rtoes 62.1937
lfemur -26.8807 1.91511 -36.2505
ltibia 28.4735
lfoot -40.4812 26.6034
ltoes -5.99059
652
root -1.85696 16.6519 22.189 -153.686 -12.4823 -182.238
lowerback -27.5545 2.80638 -4.37578
upperback -24.308 -4.96821 -4.73686
thorax -12.7575 -6.0887 -2.70572
lowerneck -12.8922 -1.08996 -4.1081
upperneck -17.86 -2.99523 5.26222
head -3.56783 -2.22504 2.50729
rclavicle 4.53229e-014 7.95139e-015
rhumerus -51.9306 -1.80164 10.6294
rradius 14.449
rwrist 48.3486
rhand -20.9133 43.4067
rfingers 7.12502
rthumb 5.45808 13.4969
lclavicle 4.53229e-014 7.95139e-015
lhumerus -46.6008 -20.9926 1.08216
lradius 20.9902
lwrist -54.1763
lhand -16.1556 6.75415
lfingers 7.12502
lthumb 10.05 36.4942
rfemur 106.046 -191.298 -180.897
rtibia 44.5409
rfoot -58.4781 -7.62332
rtoes 62.2131
lfemur -26.7927 1.91389 -36.5279
ltibia 28.3464
lfoot -40.3671 26.5471
ltoes -6.57067
653
root -1.84125 16.6511 22.1838 -153.649 -12.46 -182.371
lowerback -27.5364 2.68556 -4.6921
upperback -24.439 -5.15878 -4.6193
thorax -12.9312 -6.15166 -2.41424
lowerneck -14.4827 -0.801228 -3.93913
upperneck -18.7484 -2.96053 4.74282
head -3.64334 -2.28951 2.30104
rclavicle -4.29375e-014 2.38542e-015
rhumerus -51.2556 -6.11872 16.263
rradius 13.4472
rwrist 54.2029
rhand -19.4386 40.6298
rfingers 7.12502
rthumb 6.88181 10.7616
lclavicle -4.29375e-014 2.38542e-015
lhumerus -45.9571 -19.888 -0.752022
lradius 20.7342
lwrist -55.1249
lhand -12.6168 8.98607
lfingers 7.12502
lthumb 13.4625 38.531
rfemur 105.986 -191.211 -180.879
rtibia 44.6412
rfoot -58.3267 -7.7085
rtoes 62.2421
lfemur -26.7462 2.0297 -36.6218
ltibia 28.2142
lfoot -40.2643 26.3913
ltoes -6.19694
654
root -1.82328 16.6489 22.1792 -153.548 -12.3914 -182.51
lowerback -27.5435 2.58304 -5.03251
upperback -24.5519 -5.31688 -4.53874
thorax -13.0722 -6.19841 -2.14893
lowerneck -15.5541 -0.452214 -3.85421
upperneck -19.8476 -2.8691 4.20212
head -3.89514 -2.32272 2.12321
rclavicle -3.02153e-014 -5.96354e-015
rhumerus -51.062 -9.89691 20.931
rradius 12.9007
rwrist 59.1364
rhand -17.896 36.8042
rfingers 7.12502
rthumb 8.37074 6.99008
lclavicle -3.02153e-014 -5.96354e-015
lhumerus -45.4249 -19.608 -1.92031
lradius 20.698
lwrist -54.9748
lhand -8.76352 11.6967
lfingers 7.12502
lthumb 17.1741 40.9577
rfemur 105.844 -191.137 -180.899
rtibia 44.698
rfoot -58.1345 -8.14198
rtoes 62.2524
lfemur -26.819 2.15748 -36.7478
ltibia 28.1396
lfoot -40.0108 26.4886
ltoes -6.20787
655
root -1.82469 16.6507 22.1832 -153.418 -12.4994 -182.504
lowerback -27.5603 2.64645 -4.9154
upperback -24.6755 -5.34819 -4.59293
thorax -13.232 -6.26842 -2.25746
lowerneck -16.5468 -0.157463 -3.75283
upperneck -20.866 -2.85792 3.68542
head -4.13491 -2.39219 1.94793
rclavicle 5.1684e-015 2.38542e-015
rhumerus -50.781 -10.9451 22.6912
rradius 12.7532
rwrist 60.1447
rhand -16.1412 32.9224
rfingers 7.12502
rthumb 10.0639 3.18308
lclavicle 5.1684e-015 2.38542e-015
lhumerus -44.8317 -19.8089 -2.80883
lradius 20.7242
lwrist -54.3451
lhand -4.84448 13.9719
lfingers 7.12502
lthumb 20.9428 42.8613
rfemur 105.774 -190.896 -180.774
rtibia 44.7126
rfoot -57.9599 -8.52119
rtoes 62.3295
lfemur -26.9466 2.09893 -36.743
ltibia 28.136
lfoot -39.8702 26.5122
ltoes -6.26042
656
root -1.81394 16.6525 22.1811 -153.387 -12.4862 -182.336
lowerback -27.5127 2.71715 -4.81092
upperback -24.8344 -5.37533 -4.5389
thorax -13.4528 -6.32183 -2.23148
lowerneck -17.2112 0.153075 -3.73823
upperneck -22.3376 -2.78313 3.3778
head -4.03516 -2.4281 1.73838
rclavicle -1.63003e-014 -5.00937e-014
rhumerus -50.4177 -12.1628 24.6388
rradius 12.6999
rwrist 61.3205
rhand -13.7226 30.2409
rfingers 7.12502
rthumb 12.3965 0.628492
lclavicle -1.63003e-014 -5.00937e-014
lhumerus -43.903 -19.1604 -4.36268
lradius 20.3602
lwrist -54.9693
lhand -1.36202 15.5494
lfingers 7.12502
lthumb 24.2852 44.0312
rfemur 105.692 -190.903 -180.525
rtibia 44.6881
rfoot -57.7999 -9.25753
rtoes 62.2809
lfemur -27.0767 1.99543 -36.5164
ltibia 28.1797
lfoot -40.0643 26.4439
ltoes -5.91751
